<svg xmlns="http://www.w3.org/2000/svg" version="1.1" xmlns:xlink="http://www.w3.org/1999/xlink" xmlns:svgjs="http://svgjs.dev/svgjs" width="2000" height="1674" viewBox="0 0 2000 1674"><g transform="matrix(1,0,0,1,-1.188501389630801,0.6789843083164442)"><svg viewBox="0 0 295 247" data-background-color="#f2a1c4" preserveAspectRatio="xMidYMid meet" height="1674" width="2000" xmlns="http://www.w3.org/2000/svg" xmlns:xlink="http://www.w3.org/1999/xlink"><g id="tight-bounds" transform="matrix(1,0,0,1,0.17554403533824825,-0.09997365579206985)"><svg viewBox="0 0 294.64911761194026 247.2" height="247.2" width="294.64911761194026"><g><svg viewBox="0 0 294.64911761194026 247.2" height="247.2" width="294.64911761194026"><g><svg viewBox="0 0 294.64911761194026 247.2" height="247.2" width="294.64911761194026"><g id="textblocktransform"><svg viewBox="0 0 294.64911761194026 247.2" height="247.2" width="294.64911761194026" id="textblock"><g><svg viewBox="0 0 294.64911761194026 247.2" height="247.2" width="294.64911761194026"><path d="M293.959 53.02C292.574 27.36 288.626 20.227 288.626 20.227 276.506-6.202 261.379-0.506 247.79 3.292 223.798 3.446 199.904 9.091 175.967 12.119 125.726 12.581 75.055 4.986 25.063 23.717 20.367 29.464-4.872 24.846 0.835 56.304 2.331 69.39 7.789 83.913 7.623 95.922 8.371 98.026 9.41 93.202 9.853 96.23 11.404 104.39 13.939 100.541 16.017 105.365 13.122 118.246 15.2 128.971 17.181 140.21 13.69 143.135 9.216 141.749 7.207 151.449 6.999 158.479 5.877 157.145 4.645 156.837 3.744 156.632 1.93 157.402 2.234 159.608 3.273 167.152-1.187 171.514 1.611 178.904-0.314 186.91 2.941 193.838 2.498 202.511 2.442 204.255 2.747 205.744 3.232 206.154 5.379 208.361 2.248 212.672 2.581 217.342 24.605 249.262 48.5 227.195 71.065 241.872 76.925 231.608 72.52 245.516 74.861 243.36 76.689 240.846 78.019 251.263 80.083 245.362 80.402 243.668 79.917 239.665 81.053 240.435 81.648 240.846 82.175 240.743 82.258 238.382 82.383 234.841 81.288 237.048 80.997 235.201 84.142 225.861 83.366 248.081 86.316 247.158 86.178 244.438 85.319 240.538 87.078 241.051 88.824 237.151 88.879 233.918 90.431 242.693 90.486 244.592 90.763 245.926 91.206 246.85 96.055 237.305 100.875 250.237 105.959 245.926 109.075 241.205 112.068 248.492 115.226 246.696 116.334 245.259 117.456 242.693 118.523 247.004 131.585 247.928 145.506 244.079 157.89 247.158 190.983 241.41 226.347 249.518 261.241 241.923 269.469 238.998 278.016 234.841 286.036 231.506 286.036 231.506 292.533 222.371 292.533 181.316S293.918 145.393 294.126 112.703C294.333 80.013 295.303 78.679 293.918 53.02Z" opacity="1" fill="#915eff" data-fill-palette-color="tertiary"></path><g transform="matrix(1,0,0,1,55.76831999999999,26.230666666666668)"><svg width="183.11247761194028" viewBox="0.49 -33.54 32.3 34.35" height="194.73866666666666" data-palette-color="#ffffff"><path d="M32.79-33.54L32.79-31.4 29.91-30.86 18.7 0.81 14.89 0.81 3.44-30.91 0.49-31.4 0.49-33.54 12.45-33.54 12.45-31.4 9.5-31.15Q9.28-31.13 9.16-30.88 9.03-30.64 9.03-30.42L9.03-30.42Q9.03-30.3 9.06-30.25L9.06-30.25 17.85-5.54 26.29-30.15Q26.32-30.2 26.32-30.32L26.32-30.32Q26.32-30.59 26.1-30.86 25.88-31.13 25.61-31.15L25.61-31.15 22.85-31.4 22.85-33.54 32.79-33.54Z" opacity="1" transform="matrix(1,0,0,1,0,0)" fill="#ffffff" class="wordmark-text-0" data-fill-palette-color="quaternary" id="text-0"></path></svg></g></svg></g></svg></g></svg></g><g></g></svg></g><defs></defs></svg><rect width="294.64911761194026" height="247.2" fill="none" stroke="none" visibility="hidden"></rect></g></svg></g></svg>